<mxfile host="app.diagrams.net" modified="2022-03-10T22:25:45.683Z" agent="5.0 (Windows NT 10.0; Win64; x64) AppleWebKit/537.36 (KHTML, like Gecko) Chrome/99.0.4844.51 Safari/537.36 Edg/99.0.1150.36" etag="rFq5tWRBSbAVuG62_gZM" version="17.1.1" type="github">
  <diagram id="MZ_fBldyMYIC2ey2OPxV" name="Page-1">
    <mxGraphModel dx="782" dy="514" grid="1" gridSize="10" guides="1" tooltips="1" connect="1" arrows="1" fold="1" page="1" pageScale="1" pageWidth="827" pageHeight="1169" math="0" shadow="0">
      <root>
        <mxCell id="0" />
        <mxCell id="1" parent="0" />
        <mxCell id="GGWF5jEbp14LgJkGm97j-14" value="&lt;font style=&quot;font-size: 24px&quot;&gt;重要伙伴&lt;/font&gt;&lt;br&gt;&lt;br&gt;广告代理公司&lt;br&gt;第三方服务公司" style="rounded=0;whiteSpace=wrap;html=1;" vertex="1" parent="1">
          <mxGeometry x="130" y="90" width="130" height="270" as="geometry" />
        </mxCell>
        <mxCell id="GGWF5jEbp14LgJkGm97j-15" value="关键业务&lt;br&gt;&lt;font style=&quot;font-size: 12px&quot;&gt;平台管理&lt;br&gt;管理服务&lt;br&gt;创新业务&lt;/font&gt;" style="rounded=0;whiteSpace=wrap;html=1;fontSize=24;" vertex="1" parent="1">
          <mxGeometry x="260" y="90" width="130" height="140" as="geometry" />
        </mxCell>
        <mxCell id="GGWF5jEbp14LgJkGm97j-16" value="核心资源&lt;br&gt;&lt;font style=&quot;font-size: 12px&quot;&gt;搜索平台&lt;br&gt;资源平台&lt;/font&gt;" style="rounded=0;whiteSpace=wrap;html=1;fontSize=24;" vertex="1" parent="1">
          <mxGeometry x="390" y="90" width="130" height="140" as="geometry" />
        </mxCell>
        <mxCell id="GGWF5jEbp14LgJkGm97j-17" value="价值主张&lt;br&gt;&lt;font style=&quot;font-size: 12px&quot;&gt;免费搜索&lt;br&gt;搜索广告&lt;br&gt;排序竞价&lt;/font&gt;" style="rounded=0;whiteSpace=wrap;html=1;fontSize=24;" vertex="1" parent="1">
          <mxGeometry x="260" y="230" width="260" height="130" as="geometry" />
        </mxCell>
        <mxCell id="GGWF5jEbp14LgJkGm97j-18" value="客户关系&lt;br&gt;&lt;font style=&quot;font-size: 12px&quot;&gt;用户自助服务&lt;br&gt;关键用户管理&lt;br&gt;渠道代理商&lt;/font&gt;" style="rounded=0;whiteSpace=wrap;html=1;fontSize=24;" vertex="1" parent="1">
          <mxGeometry x="520" y="91" width="130" height="140" as="geometry" />
        </mxCell>
        <mxCell id="GGWF5jEbp14LgJkGm97j-19" value="客户细分&lt;br&gt;&lt;font style=&quot;font-size: 12px&quot;&gt;用户（网民）&lt;br&gt;广告主&lt;/font&gt;" style="rounded=0;whiteSpace=wrap;html=1;fontSize=24;" vertex="1" parent="1">
          <mxGeometry x="650" y="91" width="130" height="140" as="geometry" />
        </mxCell>
        <mxCell id="GGWF5jEbp14LgJkGm97j-20" value="渠道通路&lt;br&gt;&lt;font style=&quot;font-size: 12px&quot;&gt;直销团队&lt;br&gt;分公司&lt;br&gt;渠道&lt;/font&gt;" style="rounded=0;whiteSpace=wrap;html=1;fontSize=24;" vertex="1" parent="1">
          <mxGeometry x="520" y="230" width="260" height="131" as="geometry" />
        </mxCell>
        <mxCell id="GGWF5jEbp14LgJkGm97j-21" value="&lt;font&gt;&lt;font style=&quot;font-size: 24px&quot;&gt;成本结构&lt;/font&gt;&lt;br&gt;&lt;span style=&quot;font-size: 12px&quot;&gt;平台成本 研发成本 销售成本人力成本&lt;/span&gt;&lt;/font&gt;" style="rounded=0;whiteSpace=wrap;html=1;fontSize=24;" vertex="1" parent="1">
          <mxGeometry x="130" y="361" width="320" height="79" as="geometry" />
        </mxCell>
        <mxCell id="GGWF5jEbp14LgJkGm97j-22" value="收入来源&lt;br&gt;&lt;font style=&quot;font-size: 12px&quot;&gt;广告产品&lt;/font&gt;" style="rounded=0;whiteSpace=wrap;html=1;fontSize=24;" vertex="1" parent="1">
          <mxGeometry x="450" y="360" width="330" height="80" as="geometry" />
        </mxCell>
      </root>
    </mxGraphModel>
  </diagram>
</mxfile>
